<svg width="90" height="55" viewBox="0 0 90 55" fill="none" xmlns="http://www.w3.org/2000/svg">
<path d="M55.2964 12.2175L49.1794 22.8427C48.297 24.3749 46.0912 24.3749 45.2087 22.8427L39.0921 12.2175C38.2096 10.6849 39.3125 8.7687 41.0774 8.7687H53.311C55.0756 8.7687 56.1789 10.6849 55.2964 12.2175ZM37.6434 23.8753C35.6746 23.8794 34.0758 22.283 34.0713 20.3086C34.0673 18.3346 35.6591 16.7311 37.6278 16.7267C39.5962 16.7226 41.1951 18.3194 41.1995 20.293C41.2036 22.2674 39.6114 23.8709 37.6434 23.8753ZM44.9139 0.517334C36.3759 0.517334 29.4541 7.45901 29.4541 16.0216C29.4541 24.5845 36.3759 31.5262 44.9139 31.5262C53.4523 31.5262 60.3741 24.5845 60.3741 16.0216C60.3741 7.45901 53.4523 0.517334 44.9139 0.517334Z" fill="#2D4D53"/>
<path d="M7.25497 54.5072H7.46524C8.34839 54.5072 8.95818 54.0222 9.29462 53.2209L14.1099 41.6648C14.194 41.475 14.2781 41.2009 14.2781 40.9478C14.2781 40.0621 13.5632 39.3873 12.68 39.3873C11.902 39.3873 11.3343 39.8934 11.124 40.4206L7.40216 50.0788L3.72237 40.5261C3.47004 39.8723 2.92333 39.3873 2.08224 39.3873C1.17806 39.3873 0.463135 40.0832 0.463135 40.99C0.463135 41.2641 0.547244 41.5172 0.652381 41.7702L5.42559 53.2209C5.76203 54.0222 6.37182 54.5072 7.25497 54.5072Z" fill="#2D4D53"/>
<path d="M14.8086 52.8835C14.8086 53.727 15.4604 54.4018 16.3015 54.4018C16.9744 54.4018 17.5211 54.0222 17.7945 53.3896L18.8248 50.9645H25.3012L26.2895 53.2841C26.5839 53.9589 27.0886 54.4018 27.8456 54.4018C28.7077 54.4018 29.3805 53.7059 29.3805 52.8413C29.3805 52.6304 29.3175 52.4195 29.2123 52.1876L24.0817 40.5682C23.7242 39.7669 23.0934 39.2819 22.2102 39.2819H22.021C21.1378 39.2819 20.486 39.7669 20.1285 40.5682L14.9978 52.1876C14.8927 52.4195 14.8086 52.6515 14.8086 52.8835ZM20.0234 48.0965L22.063 43.2253L24.1027 48.0965H20.0234Z" fill="#2D4D53"/>
<path d="M32.4668 52.7781C32.4668 53.6849 33.1817 54.4019 34.0859 54.4019C34.9901 54.4019 35.705 53.6849 35.705 52.7781V49.8469H38.1652C41.4665 49.8469 44.1159 48.0755 44.1159 44.6593V44.6172C44.1159 41.6016 41.9922 39.5139 38.4806 39.5139H34.0859C33.1817 39.5139 32.4668 40.2309 32.4668 41.1377V52.7781ZM35.705 46.9579V42.4451H38.2073C39.8264 42.4451 40.8357 43.2254 40.8357 44.6804V44.7226C40.8357 45.9879 39.8894 46.9579 38.2703 46.9579H35.705Z" fill="#2D4D53"/>
<path d="M44.9775 52.8835C44.9775 53.727 45.6294 54.4018 46.4705 54.4018C47.1434 54.4018 47.6901 54.0222 47.9634 53.3896L48.9938 50.9645H55.4702L56.4585 53.2841C56.7529 53.9589 57.2575 54.4018 58.0145 54.4018C58.8766 54.4018 59.5495 53.7059 59.5495 52.8413C59.5495 52.6304 59.4864 52.4195 59.3813 52.1876L54.2506 40.5682C53.8931 39.7669 53.2623 39.2819 52.3792 39.2819H52.1899C51.3068 39.2819 50.6549 39.7669 50.2975 40.5682L45.1668 52.1876C45.0616 52.4195 44.9775 52.6515 44.9775 52.8835ZM50.1923 48.0965L52.232 43.2253L54.2716 48.0965H50.1923Z" fill="#2D4D53"/>
<path d="M68.4406 54.5072C72.3938 54.5072 74.896 52.3141 74.896 47.8435V41.0111C74.896 40.1043 74.1811 39.3873 73.2769 39.3873C72.3727 39.3873 71.6578 40.1043 71.6578 41.0111V47.97C71.6578 50.3108 70.4593 51.5128 68.4827 51.5128C66.5061 51.5128 65.3075 50.2686 65.3075 47.8646V41.0111C65.3075 40.1043 64.5926 39.3873 63.6884 39.3873C62.7843 39.3873 62.0693 40.1043 62.0693 41.0111V47.949C62.0693 52.293 64.4875 54.5072 68.4406 54.5072Z" fill="#2D4D53"/>
<path d="M83.9615 54.4863C87.1366 54.4863 89.3655 52.8414 89.3655 49.9102V49.8681C89.3655 47.2954 87.6834 46.2199 84.6975 45.4396C82.1532 44.7859 81.5223 44.4696 81.5223 43.4996V43.4574C81.5223 42.7404 82.1742 42.171 83.4148 42.171C84.4241 42.171 85.4334 42.5295 86.5058 43.1622C86.7582 43.3098 87.0105 43.3941 87.3259 43.3941C88.167 43.3941 88.8399 42.7404 88.8399 41.8969C88.8399 41.2643 88.4824 40.8214 88.1249 40.6105C86.8002 39.767 85.2442 39.3031 83.4569 39.3031C80.4499 39.3031 78.3052 41.0745 78.3052 43.7526V43.7948C78.3052 46.726 80.2186 47.5484 83.1835 48.3076C85.6437 48.9402 86.1484 49.362 86.1484 50.1844V50.2266C86.1484 51.0912 85.3493 51.6183 84.0246 51.6183C82.5947 51.6183 81.3752 51.1122 80.2607 50.2898C80.0504 50.1422 79.756 49.9946 79.3355 49.9946C78.4944 49.9946 77.8215 50.6483 77.8215 51.4918C77.8215 51.9979 78.0739 52.4619 78.4313 52.7149C80.0715 53.8958 82.027 54.4863 83.9615 54.4863Z" fill="#2D4D53"/>
</svg>
